<svg xmlns="http://www.w3.org/2000/svg" width="48" height="48" viewBox="0 0 48 48" fill="none">
  <rect width="48" height="48" rx="10" fill="#3b82f6"/>
  <rect x="8" y="8" width="9" height="6" rx="1" fill="#60a5fa"/>
  <rect x="19" y="8" width="9" height="6" rx="1" fill="#93c5fd"/>
  <rect x="30" y="8" width="9" height="6" rx="1" fill="#60a5fa"/>
  <rect x="8" y="16" width="6" height="8" rx="1" fill="#93c5fd"/>
  <rect x="16" y="16" width="6" height="8" rx="1" fill="#bfdbfe"/>
  <rect x="24" y="16" width="15" height="8" rx="1" fill="#93c5fd"/>
  <rect x="8" y="26" width="6" height="6" rx="1" fill="#60a5fa"/>
  <rect x="16" y="26" width="6" height="6" rx="1" fill="#93c5fd"/>
  <rect x="24" y="26" width="15" height="6" rx="1" fill="#bfdbfe"/>
  <rect x="8" y="34" width="9" height="6" rx="1" fill="#93c5fd"/>
  <rect x="19" y="34" width="11" height="6" rx="1" fill="#60a5fa"/>
</svg>
